<svg xmlns="http://www.w3.org/2000/svg" xmlns:xlink="http://www.w3.org/1999/xlink" version="1.1" x="0px" y="0px" width="512px" height="512px" viewBox="0 0 512 512" enable-background="new 0 0 512 512" xml:space="preserve"><style>.style0{fill-rule:	evenodd;clip-rule:	evenodd;fill:	#181616;}.style1{fill:	#181616;}</style><g><path d="M256.475 50.117c-113.757 0-206.003 93.417-206.003 208.66 c0 92.19 59.03 170.41 140.88 198.001c10.294 1.93 14.076-4.529 14.076-10.039c0-4.975-0.19-21.414-0.28-38.852 c-57.31 12.626-69.402-24.618-69.402-24.618c-9.372-24.116-22.874-30.53-22.874-30.53c-18.692-12.952 1.41-12.687 1.41-12.687 c20.684 1.47 31.58 21.51 31.58 21.506c18.373 31.9 48.19 22.68 59.95 17.345c1.849-13.485 7.186-22.692 13.08-27.904 c-45.757-5.272-93.859-23.168-93.859-103.121c0-22.78 8.048-41.396 21.228-56.009c-2.139-5.257-9.192-26.479 1.995-55.223 c0 0 17.3-5.604 56.66 21.392c16.435-4.624 34.058-6.942 51.563-7.023c17.506 0.08 35.14 2.4 51.61 7.02 c39.321-26.997 56.594-21.392 56.594-21.392c11.213 28.74 4.16 49.97 2.02 55.223c13.21 14.61 21.2 33.23 21.2 56.01 c0 80.146-48.19 97.79-94.062 102.956c7.389 6.48 13.97 19.17 13.97 38.642c0 27.92-0.237 50.391-0.237 57.26 c0 5.55 3.71 12.06 14.15 10.012c81.809-27.623 140.761-105.812 140.761-197.974C462.478 143.53 370.24 50.12 256.48 50.12 z" class="style0"/><path d="M128.497 349.712c-0.454 1.039-2.066 1.35-3.532 0.639c-1.496-0.683-2.333-2.098-1.849-3.137 c0.443-1.065 2.055-1.363 3.548-0.651C128.159 347.25 129.01 348.67 128.5 349.712L128.497 349.712z M125.96 347.81" class="style1"/><path d="M136.841 359.14c-0.982 0.921-2.905 0.493-4.208-0.965c-1.349-1.454-1.599-3.401-0.602-4.336 c1.012-0.921 2.875-0.489 4.22 0.965C137.604 356.27 137.87 358.2 136.84 359.14L136.841 359.14z M134.876 357" class="style1"/><path d="M144.963 371.156c-1.262 0.891-3.329 0.057-4.604-1.798c-1.263-1.856-1.263-4.084 0.03-4.974 c1.275-0.893 3.312-0.088 4.6 1.749C146.252 368.02 146.25 370.25 144.96 371.156L144.963 371.156z M144.963 371.16" class="style1"/><path d="M156.09 382.768c-1.129 1.262-3.534 0.921-5.293-0.8c-1.802-1.682-2.302-4.069-1.173-5.332 c1.146-1.261 3.565-0.908 5.34 0.801C156.75 379.12 157.29 381.52 156.09 382.768L156.09 382.768z M156.09 382.77" class="style1"/><path d="M171.44 389.509c-0.499 1.635-2.815 2.377-5.146 1.682c-2.332-0.717-3.854-2.628-3.384-4.279 c0.482-1.647 2.811-2.419 5.16-1.677C170.399 385.94 171.92 387.85 171.44 389.509L171.44 389.509z M171.44 389.51" class="style1"/><path d="M188.301 390.758c0.058 1.721-1.922 3.148-4.37 3.18c-2.462 0.057-4.458-1.337-4.484-3.032 c0-1.737 1.935-3.147 4.397-3.191C186.292 387.67 188.3 389.05 188.3 390.758L188.301 390.758z M188.301 390.76" class="style1"/><path d="M203.989 388.056c0.293 1.677-1.409 3.401-3.841 3.86c-2.392 0.445-4.604-0.594-4.911-2.258 c-0.296-1.721 1.436-3.445 3.825-3.892C201.496 385.34 203.68 386.35 203.99 388.056L203.989 388.056z M203.989 388.06" class="style1"/></g></svg>