<svg xmlns="http://www.w3.org/2000/svg" xmlns:xlink="http://www.w3.org/1999/xlink" version="1.1" x="0px" y="0px" width="512px" height="512px" viewBox="0 0 512 512" enable-background="new 0 0 512 512" xml:space="preserve"><path d="M256 48C142.487 48 50.489 140.776 50.489 255.25c0 114.473 91.998 207.25 205.511 207.25 c113.512 0 205.51-92.777 205.51-207.25C461.511 140.776 369.514 48 256 48z M211.623 339.218l-58.378 19.657l19.491-58.839 l110.075-111.009l38.89 39.183L211.623 339.218z M354.549 195.083l-20.102 20.271l-38.887-39.184l20.102-20.271 c5.619-5.699 14.738-5.699 20.297-0.065l18.654 18.814C360.169 180.25 360.135 189.416 354.549 195.083z"/></svg>